<svg id="icons" enable-background="new 0 0 64 64" height="512" viewBox="0 0 64 64" width="512" xmlns="http://www.w3.org/2000/svg"><g><g><g><path d="m32 29c1.66 0 3 1.34 3 3 0 1.65-1.34 3-3 3-1.65 0-3-1.35-3-3 0-1.66 1.35-3 3-3z" fill="#aab2bd"/></g><g><path d="m21.61 26h20.78.01c.75 1.3 1.26 2.75 1.479 4.3-5.12 2.29-8.72 7.37-8.87 13.32-.959.25-1.969.38-3.009.38-1.03 0-2.04-.13-3-.38-.15-5.95-3.75-11.03-8.88-13.32.22-1.55.73-3 1.49-4.3zm10.39 3c-1.65 0-3 1.34-3 3 0 1.65 1.35 3 3 3 1.66 0 3-1.35 3-3 0-1.66-1.34-3-3-3z" fill="#545c66"/></g><g><path d="m35.01 43.62c5.17-1.34 8.99-6.04 8.99-11.62 0-.58-.04-1.14-.12-1.7-.22-1.55-.729-3-1.479-4.3-2.07-3.58-5.95-6-10.4-6-4.44 0-8.32 2.42-10.39 6-.761 1.3-1.271 2.75-1.49 4.3-.081.55-.121 1.12-.121 1.7 0 5.59 3.83 10.29 9 11.62.96.25 1.97.38 3 .38 1.04 0 2.05-.13 3.01-.38zm-3.01-26.62c8.29 0 15 6.71 15 15 0 8.28-6.71 15-15 15-8.28 0-15-6.72-15-15 0-8.29 6.72-15 15-15z" fill="#656d78"/></g><g><path d="m63 26v12h-4.68c-.681 3.01-1.87 5.83-3.471 8.37l3.311 3.31-8.48 8.48-3.31-3.311c-2.54 1.601-5.36 2.79-8.37 3.471v4.68h-12v-4.68c-3.01-.681-5.83-1.87-8.37-3.471l-3.31 3.311-8.48-8.48 3.311-3.31c-1.601-2.54-2.791-5.36-3.471-8.37h-4.68v-12h4.68c.681-3.01 1.87-5.83 3.471-8.37l-3.311-3.31 8.48-8.48 3.31 3.311c2.54-1.601 5.36-2.791 8.37-3.471v-4.68h12v4.68c3.01.681 5.83 1.87 8.37 3.471l3.31-3.311 8.48 8.48-3.311 3.31c1.601 2.54 2.79 5.36 3.471 8.37zm-12 6c0-10.49-8.51-19-19-19s-19 8.51-19 19 8.51 19 19 19 19-8.51 19-19z" fill="#e6e9ed"/></g></g><g><path d="m32 56c-.553 0-1-.447-1-1s.447-1 1-1c12.131 0 22-9.869 22-22 0-.553.447-1 1-1s1 .447 1 1c0 13.233-10.767 24-24 24z" fill="#ccd1d9"/></g><g><path d="m9 33c-.553 0-1-.447-1-1 0-13.233 10.767-24 24-24 .553 0 1 .447 1 1s-.447 1-1 1c-12.131 0-22 9.869-22 22 0 .553-.447 1-1 1z" fill="#ccd1d9"/></g></g></svg>